<svg viewBox="0 0 640 400" 
    data-background-color="#ffc904ff" preserveAspectRatio="xMidYMid meet" height="400" width="640"
	xmlns="http://www.w3.org/2000/svg"
	xmlns:xlink="http://www.w3.org/1999/xlink">
	<rect width="640" height="400" x="0" y="0" 
        opacity="1" 
        fill="#ffc90400" data-fill-palette-color="background" id="background"></rect>
	<g id="tight-bounds" 
    transform="matrix(1,0,0,1,122.24000000000001,138.50274283466004)">
		<svg viewBox="0 0 395.52 122.99451433067993" height="122.99451433067993" width="395.52">
			<g>
				<svg viewBox="0 0 599.3846844622883 186.39013997443112" height="122.99451433067993" width="395.52">
					<g transform="matrix(1,0,0,1,203.8646844622883,57.59725868575813)">
						<svg viewBox="0 0 395.52 71.19562260291487" height="71.19562260291487" width="395.52">
							<g>
								<svg viewBox="0 0 395.52 71.19562260291487" height="71.19562260291487" width="395.52">
									<g>
										<svg viewBox="0 0 395.52 71.19562260291487" height="71.19562260291487" width="395.52">
											<g transform="matrix(1,0,0,1,0,0)">
												<svg width="395.52" viewBox="1.850000023841858 -34.599998474121094 195.5399932861328 35.19999694824219" height="71.19562260291487" data-palette-color="#333333">
													<path d="M14.15-28.6L14.15-28.6Q8.7-28.6 8.7-25L8.7-25Q8.7-23.4 10.05-22.55 11.4-21.7 16.38-20.1 21.35-18.5 23.35-16.48 25.35-14.45 25.35-10.25L25.35-10.25Q25.35-4.9 22.1-2.15 18.85 0.6 13.6 0.6L13.6 0.6Q9.7 0.6 4.05-0.6L4.05-0.6 2.25-0.95 2.95-6.3Q9.65-5.4 13.2-5.4L13.2-5.4Q18.5-5.4 18.5-9.8L18.5-9.8Q18.5-11.4 17.28-12.3 16.05-13.2 12.4-14.25L12.4-14.25Q6.6-15.9 4.23-18.18 1.85-20.45 1.85-24.5L1.85-24.5Q1.85-29.6 4.95-32.1 8.05-34.6 13.45-34.6L13.45-34.6Q17.15-34.6 22.85-33.6L22.85-33.6 24.65-33.25 24.1-27.8Q17.05-28.6 14.15-28.6ZM43.4-9.9L43.4-9.9 37.8-9.9 37.8 0 30.9 0 30.9-34 43.4-34Q55.5-34 55.5-22.2L55.5-22.2Q55.5-16.25 52.42-13.08 49.35-9.9 43.4-9.9ZM37.8-28.1L37.8-15.8 43.35-15.8Q48.5-15.8 48.5-22.2L48.5-22.2Q48.5-25.35 47.25-26.73 46-28.1 43.35-28.1L43.35-28.1 37.8-28.1ZM82.35 0L60.35 0 60.35-34 82.35-34 82.35-28 67.25-28 67.25-20.05 79.35-20.05 79.35-14.15 67.25-14.15 67.25-6 82.35-6 82.35 0ZM109.19-6.2L109.34-0.55Q104.04 0.6 99.79 0.6 95.54 0.6 92.99-0.45 90.44-1.5 88.99-3.8 87.54-6.1 86.99-9.2 86.44-12.3 86.44-17L86.44-17Q86.44-26.85 89.22-30.73 91.99-34.6 99.44-34.6L99.44-34.6Q103.74-34.6 109.39-33.25L109.39-33.25 109.19-27.75Q104.24-28.5 100.97-28.5 97.69-28.5 96.29-27.63 94.89-26.75 94.22-24.3 93.54-21.85 93.54-15.95 93.54-10.05 94.92-7.78 96.29-5.5 100.42-5.5 104.54-5.5 109.19-6.2L109.19-6.2ZM120.99-27.9L111.89-27.9 111.89-34 136.89-34 136.89-27.9 127.89-27.9 127.89 0 120.99 0 120.99-27.9ZM154.79-11.4L148.14-11.4 148.14 0 141.24 0 141.24-34 154.44-34Q166.44-34 166.44-22.8L166.44-22.8Q166.44-16.15 161.44-13L161.44-13 166.29 0 158.74 0 154.79-11.4ZM154.54-17.3Q156.99-17.3 158.19-18.8 159.39-20.3 159.39-22.75 159.39-25.2 158.11-26.65 156.84-28.1 154.44-28.1L154.44-28.1 148.14-28.1 148.14-17.3 154.54-17.3ZM175.89 0L168.99 0 176.64-34 189.74-34 197.39 0 190.49 0 189.14-6.15 177.24-6.15 175.89 0ZM184.39-28.3L181.99-28.3 178.54-12.15 187.84-12.15 184.39-28.3Z" opacity="1" transform="matrix(1,0,0,1,0,0)" fill="#333333" class="undefined-text-0" data-fill-palette-color="primary" id="text-0"></path>
												</svg>
											</g>
										</svg>
									</g>
								</svg>
							</g>
						</svg>
					</g>
					<g>
						<svg viewBox="0 0 187.05710666068256 186.39013997443112" height="186.39013997443112" width="187.05710666068256">
							<g>
								<svg
									xmlns="http://www.w3.org/2000/svg" viewBox="0.0010004043579101562 0.0856962651014328 63.99949645996094 63.77130126953125" x="0" y="0" width="187.05710666068256" height="186.39013997443112" class="icon-icon-0" data-fill-palette-color="accent" id="icon-0">
									<g data-name="Layer 1" fill="#333333" data-fill-palette-color="accent">
										<path d="M3.275 39.26a3.278 3.278 0 0 0 3.275-3.274V28.014a3.275 3.275 0 0 0-6.549 0v7.971A3.278 3.278 0 0 0 3.275 39.26Z" fill="#333333" data-fill-palette-color="accent"></path>
										<path d="M17.637 55.886a3.279 3.279 0 0 0 3.275-3.275V11.389a3.274 3.274 0 1 0-6.549 0V52.611A3.278 3.278 0 0 0 17.637 55.886Z" fill="#333333" data-fill-palette-color="accent"></path>
										<path d="M32 63.857a3.279 3.279 0 0 0 3.275-3.275V3.418a3.275 3.275 0 1 0-6.549 0V60.582A3.279 3.279 0 0 0 32 63.857Z" fill="#333333" data-fill-palette-color="accent"></path>
										<path d="M46.363 49.793a3.278 3.278 0 0 0 3.274-3.275V17.481a3.274 3.274 0 1 0-6.549 0V46.519A3.279 3.279 0 0 0 46.363 49.793Z" fill="#333333" data-fill-palette-color="accent"></path>
										<path d="M60.725 42.62A3.279 3.279 0 0 0 64 39.345V24.655a3.275 3.275 0 1 0-6.549 0v14.69A3.279 3.279 0 0 0 60.725 42.62Z" fill="#333333" data-fill-palette-color="accent"></path>
									</g>
								</svg>
							</g>
						</svg>
					</g>
				</svg>
			</g>
			<defs></defs>
		</svg>
		<rect width="395.52" height="122.99451433067993" fill="none" stroke="none" visibility="hidden"></rect>
	</g>
</svg>